<?xml version="1.0" encoding="UTF-8" standalone="no"?>
<!-- Generator: Adobe Illustrator 19.0.0, SVG Export Plug-In . SVG Version: 6.00 Build 0)  -->

<svg
   xmlns:dc="http://purl.org/dc/elements/1.1/"
   xmlns:cc="http://creativecommons.org/ns#"
   xmlns:rdf="http://www.w3.org/1999/02/22-rdf-syntax-ns#"
   xmlns:svg="http://www.w3.org/2000/svg"
   xmlns="http://www.w3.org/2000/svg"
   xmlns:sodipodi="http://sodipodi.sourceforge.net/DTD/sodipodi-0.dtd"
   xmlns:inkscape="http://www.inkscape.org/namespaces/inkscape"
   version="1.1"
   id="Capa_1"
   x="0px"
   y="0px"
   viewBox="0 0 18 18"
   xml:space="preserve"
   inkscape:version="0.91 r13725"
   sodipodi:docname="file.svg"
   width="18"
   height="18"><metadata
     id="metadata53"><rdf:RDF><cc:Work
         rdf:about=""><dc:format>image/svg+xml</dc:format><dc:type
           rdf:resource="http://purl.org/dc/dcmitype/StillImage" /><dc:title></dc:title></cc:Work></rdf:RDF></metadata><defs
     id="defs51" /><sodipodi:namedview
     pagecolor="#ffffff"
     bordercolor="#666666"
     borderopacity="1"
     objecttolerance="10"
     gridtolerance="10"
     guidetolerance="10"
     inkscape:pageopacity="0"
     inkscape:pageshadow="2"
     inkscape:window-width="1920"
     inkscape:window-height="1027"
     id="namedview49"
     showgrid="false"
     inkscape:zoom="16.275862"
     inkscape:cx="11.875538"
     inkscape:cy="13.892336"
     inkscape:window-x="-8"
     inkscape:window-y="-8"
     inkscape:window-maximized="1"
     inkscape:current-layer="g3755" /><g
     id="g3755"
     transform="matrix(0.39537037,0,0,0.39537037,-1.4657407,6.8138888)"><g
       id="g3730"
       transform="matrix(0.98077677,0,0,0.98077677,-1.9718006,2.5869437)"><polygon
         style="fill:#fdfdfd;fill-opacity:0.66822426"
         points="6.5,58 51.5,58 51.5,14 37.5,0 6.5,0 "
         id="polygon3"
         transform="matrix(0.61016949,0,0,0.61016949,11.305085,-14.694915)" /><g
         style="fill:#3f3f3f;fill-opacity:1"
         id="g5"
         transform="matrix(0.61016949,0,0,0.61016949,11.305085,-14.694915)"><path
           style="fill:#3f3f3f;fill-opacity:1"
           d="m 16.5,23 25,0 c 0.552,0 1,-0.447 1,-1 0,-0.553 -0.448,-1 -1,-1 l -25,0 c -0.552,0 -1,0.447 -1,1 0,0.553 0.448,1 1,1 z"
           id="path7"
           inkscape:connector-curvature="0" /><path
           style="fill:#3f3f3f;fill-opacity:1"
           d="m 16.5,15 10,0 c 0.552,0 1,-0.447 1,-1 0,-0.553 -0.448,-1 -1,-1 l -10,0 c -0.552,0 -1,0.447 -1,1 0,0.553 0.448,1 1,1 z"
           id="path9"
           inkscape:connector-curvature="0" /><path
           style="fill:#3f3f3f;fill-opacity:1"
           d="m 41.5,29 -25,0 c -0.552,0 -1,0.447 -1,1 0,0.553 0.448,1 1,1 l 25,0 c 0.552,0 1,-0.447 1,-1 0,-0.553 -0.448,-1 -1,-1 z"
           id="path11"
           inkscape:connector-curvature="0" /><path
           style="fill:#3f3f3f;fill-opacity:1"
           d="m 41.5,37 -25,0 c -0.552,0 -1,0.447 -1,1 0,0.553 0.448,1 1,1 l 25,0 c 0.552,0 1,-0.447 1,-1 0,-0.553 -0.448,-1 -1,-1 z"
           id="path13"
           inkscape:connector-curvature="0" /><path
           style="fill:#3f3f3f;fill-opacity:1"
           d="m 41.5,45 -25,0 c -0.552,0 -1,0.447 -1,1 0,0.553 0.448,1 1,1 l 25,0 c 0.552,0 1,-0.447 1,-1 0,-0.553 -0.448,-1 -1,-1 z"
           id="path15"
           inkscape:connector-curvature="0" /></g><polygon
         style="fill:#3f3f3f;fill-opacity:1"
         points="37.5,14 51.5,14 37.5,0 "
         id="polygon17"
         transform="matrix(0.61016949,0,0,0.61016949,11.305085,-14.694915)" /><g
         id="g19"
         transform="matrix(0.61016949,0,0,0.61016949,11.305085,-14.694915)" /><g
         id="g21"
         transform="matrix(0.61016949,0,0,0.61016949,11.305085,-14.694915)" /><g
         id="g23"
         transform="matrix(0.61016949,0,0,0.61016949,11.305085,-14.694915)" /><g
         id="g25"
         transform="matrix(0.61016949,0,0,0.61016949,11.305085,-14.694915)" /><g
         id="g27"
         transform="matrix(0.61016949,0,0,0.61016949,11.305085,-14.694915)" /><g
         id="g29"
         transform="matrix(0.61016949,0,0,0.61016949,11.305085,-14.694915)" /><g
         id="g31"
         transform="matrix(0.61016949,0,0,0.61016949,11.305085,-14.694915)" /><g
         id="g33"
         transform="matrix(0.61016949,0,0,0.61016949,11.305085,-14.694915)" /><g
         id="g35"
         transform="matrix(0.61016949,0,0,0.61016949,11.305085,-14.694915)" /><g
         id="g37"
         transform="matrix(0.61016949,0,0,0.61016949,11.305085,-14.694915)" /><g
         id="g39"
         transform="matrix(0.61016949,0,0,0.61016949,11.305085,-14.694915)" /><g
         id="g41"
         transform="matrix(0.61016949,0,0,0.61016949,11.305085,-14.694915)" /><g
         id="g43"
         transform="matrix(0.61016949,0,0,0.61016949,11.305085,-14.694915)" /><g
         id="g45"
         transform="matrix(0.61016949,0,0,0.61016949,11.305085,-14.694915)" /><g
         id="g47"
         transform="matrix(0.61016949,0,0,0.61016949,11.305085,-14.694915)" /></g></g></svg>