<?xml version="1.0" encoding="UTF-8" standalone="no"?>
<!-- Generator: Adobe Illustrator 18.0.0, SVG Export Plug-In . SVG Version: 6.00 Build 0)  -->

<svg
   xmlns:dc="http://purl.org/dc/elements/1.1/"
   xmlns:cc="http://creativecommons.org/ns#"
   xmlns:rdf="http://www.w3.org/1999/02/22-rdf-syntax-ns#"
   xmlns:svg="http://www.w3.org/2000/svg"
   xmlns="http://www.w3.org/2000/svg"
   xmlns:xlink="http://www.w3.org/1999/xlink"
   xmlns:sodipodi="http://sodipodi.sourceforge.net/DTD/sodipodi-0.dtd"
   xmlns:inkscape="http://www.inkscape.org/namespaces/inkscape"
   version="1.1"
   id="Capa_1"
   x="0px"
   y="0px"
   viewBox="0 0 18.000002 18.000002"
   xml:space="preserve"
   inkscape:version="0.91 r13725"
   sodipodi:docname="folder.svg"
   width="18"
   height="18"><metadata
     id="metadata49"><rdf:RDF><cc:Work
         rdf:about=""><dc:format>image/svg+xml</dc:format><dc:type
           rdf:resource="http://purl.org/dc/dcmitype/StillImage" /><dc:title></dc:title></cc:Work></rdf:RDF></metadata><defs
     id="defs47"><linearGradient
       inkscape:collect="always"
       id="linearGradient3882"><stop
         style="stop-color:#227aca;stop-opacity:1"
         offset="0"
         id="stop3884" /><stop
         style="stop-color:#3a62cf;stop-opacity:1"
         offset="1"
         id="stop3886" /></linearGradient><linearGradient
       inkscape:collect="always"
       xlink:href="#linearGradient3882"
       id="linearGradient3890"
       x1="11.388494"
       y1="30.206982"
       x2="50.714386"
       y2="30.38493"
       gradientUnits="userSpaceOnUse" /></defs><sodipodi:namedview
     pagecolor="#ffffff"
     bordercolor="#666666"
     borderopacity="1"
     objecttolerance="10"
     gridtolerance="10"
     guidetolerance="10"
     inkscape:pageopacity="0"
     inkscape:pageshadow="2"
     inkscape:window-width="1920"
     inkscape:window-height="1027"
     id="namedview45"
     showgrid="false"
     inkscape:snap-bbox="true"
     showguides="true"
     inkscape:guide-bbox="true"
     inkscape:bbox-paths="true"
     inkscape:object-nodes="true"
     inkscape:snap-global="false"
     inkscape:zoom="22.478828"
     inkscape:cx="10.606588"
     inkscape:cy="8.9480506"
     inkscape:window-x="-8"
     inkscape:window-y="-8"
     inkscape:window-maximized="1"
     inkscape:current-layer="Capa_1"
     inkscape:snap-bbox-midpoints="true"
     inkscape:snap-bbox-edge-midpoints="true"
     inkscape:bbox-nodes="true" /><g
     id="g3910"
     transform="matrix(0.31534338,0,0,0.31534338,-0.98782362,-0.51449999)"><path
       style="opacity:1;fill:#1b4c71;fill-opacity:1;stroke:none;stroke-width:0.5;stroke-linecap:square;stroke-linejoin:miter;stroke-miterlimit:1.41420996;stroke-dasharray:none;stroke-dashoffset:0;stroke-opacity:1"
       d="m 26.335938,16.684199 0,9.341796 28.292968,0 0,-5.517578 c 0,-2.119506 -1.706666,-3.824218 -3.826172,-3.824218 l -24.466796,0 z"
       id="path3786"
       inkscape:connector-curvature="0" /><g
       transform="matrix(0.73831586,0,0,0.73831586,7.5888402,7.6398686)"
       id="g15" /><g
       transform="matrix(0.73831586,0,0,0.73831586,7.5888402,7.6398686)"
       id="g17" /><g
       transform="matrix(0.73831586,0,0,0.73831586,7.5888402,7.6398686)"
       id="g19" /><g
       transform="matrix(0.73831586,0,0,0.73831586,7.5888402,7.6398686)"
       id="g21" /><g
       transform="matrix(0.73831586,0,0,0.73831586,7.5888402,7.6398686)"
       id="g23" /><g
       transform="matrix(0.73831586,0,0,0.73831586,7.5888402,7.6398686)"
       id="g25" /><g
       transform="matrix(0.73831586,0,0,0.73831586,7.5888402,7.6398686)"
       id="g27" /><g
       transform="matrix(0.73831586,0,0,0.73831586,7.5888402,7.6398686)"
       id="g29" /><g
       transform="matrix(0.73831586,0,0,0.73831586,7.5888402,7.6398686)"
       id="g31" /><g
       transform="matrix(0.73831586,0,0,0.73831586,7.5888402,7.6398686)"
       id="g33" /><g
       transform="matrix(0.73831586,0,0,0.73831586,7.5888402,7.6398686)"
       id="g35" /><g
       transform="matrix(0.73831586,0,0,0.73831586,7.5888402,7.6398686)"
       id="g37" /><g
       transform="matrix(0.73831586,0,0,0.73831586,7.5888402,7.6398686)"
       id="g39" /><g
       transform="matrix(0.73831586,0,0,0.73831586,7.5888402,7.6398686)"
       id="g41" /><g
       transform="matrix(0.73831586,0,0,0.73831586,7.5888402,7.6398686)"
       id="g43" /><path
       id="path3827"
       d="m 12.542969,11.523438 c -2.119506,0 -3.8261721,1.704712 -3.8261721,3.824218 l 0,24.396485 0,0.615234 0,4.634766 c 0,2.119505 1.7066661,3.826171 3.8261721,3.826171 l 4.792969,0 0.53125,0 0.03516,0 32.90039,0 c 2.119506,0 3.826172,-1.706666 3.826172,-3.826171 l 0,-4.634766 0,-0.615234 0,-15.052735 0,-0.980468 c 0,-2.119507 -1.706666,-3.824219 -3.826172,-3.824219 l -19.234375,0 -2.341797,-4.539063 c -0.971917,-1.883528 -1.706665,-3.824218 -3.826171,-3.824218 l -3.625,0 -3.089844,0 -0.783203,0 -0.03516,0 -0.53125,0 -4.792969,0 z"
       style="opacity:1;fill:url(#linearGradient3890);fill-opacity:1;stroke:none;stroke-width:0.5;stroke-linecap:square;stroke-linejoin:miter;stroke-miterlimit:1.41420996;stroke-dasharray:none;stroke-dashoffset:0;stroke-opacity:1"
       inkscape:connector-curvature="0" /></g><g
     id="g3717"
     style="clip-rule:evenodd;display:none;fill:#00d493;fill-opacity:1;fill-rule:evenodd;stroke-linecap:square;stroke-miterlimit:1.5"
     transform="translate(0,-14.000001)"><path
       inkscape:connector-curvature="0"
       id="path3739"
       d="M 22.819121,15.361758 C 19.061936,15.361758 16,18.423694 16,22.180879 16,25.938064 19.061936,29 22.819121,29 c 3.757184,0 6.821443,-3.061936 6.821443,-6.819121 0,-3.757185 -3.064259,-6.819121 -6.821443,-6.819121 z m 0,1.546844 c 2.921709,0 5.274599,2.350566 5.274599,5.272277 0,2.921711 -2.35289,5.2746 -5.274599,5.2746 -2.921711,0 -5.272277,-2.352889 -5.272277,-5.2746 0,-2.921711 2.350566,-5.272277 5.272277,-5.272277 z"
       style="color:#000000;font-style:normal;font-variant:normal;font-weight:normal;font-stretch:normal;font-size:medium;line-height:normal;font-family:sans-serif;text-indent:0;text-align:start;text-decoration:none;text-decoration-line:none;text-decoration-style:solid;text-decoration-color:#000000;letter-spacing:normal;word-spacing:normal;text-transform:none;direction:ltr;block-progression:tb;writing-mode:lr-tb;baseline-shift:baseline;text-anchor:start;white-space:normal;clip-rule:nonzero;display:inline;overflow:visible;visibility:visible;opacity:1;isolation:auto;mix-blend-mode:normal;color-interpolation:sRGB;color-interpolation-filters:linearRGB;solid-color:#000000;solid-opacity:1;fill:#00d493;fill-opacity:1;fill-rule:nonzero;stroke:none;stroke-width:1.29999995;stroke-linecap:butt;stroke-linejoin:round;stroke-miterlimit:1.5;stroke-dasharray:none;stroke-dashoffset:0;stroke-opacity:1;color-rendering:auto;image-rendering:auto;shape-rendering:auto;text-rendering:auto;enable-background:accumulate" /><path
       inkscape:connector-curvature="0"
       id="path3771"
       d="m 22.804857,18.212662 a 0.93344942,0.93344942 0 0 0 -0.917091,0.947941 l 0,2.083783 -2.086588,0 a 0.933918,0.933918 0 1 0 0,1.867836 l 2.086588,0 0,2.086589 a 0.93344942,0.93344942 0 1 0 1.865031,0 l 0,-2.086589 2.086588,0 a 0.933918,0.933918 0 0 0 0,-1.867836 l -2.086588,0 0,-2.083783 a 0.93344942,0.93344942 0 0 0 -0.94794,-0.947941 z"
       style="color:#000000;font-style:normal;font-variant:normal;font-weight:normal;font-stretch:normal;font-size:medium;line-height:normal;font-family:sans-serif;text-indent:0;text-align:start;text-decoration:none;text-decoration-line:none;text-decoration-style:solid;text-decoration-color:#000000;letter-spacing:normal;word-spacing:normal;text-transform:none;direction:ltr;block-progression:tb;writing-mode:lr-tb;baseline-shift:baseline;text-anchor:start;white-space:normal;clip-rule:nonzero;display:inline;overflow:visible;visibility:visible;opacity:1;isolation:auto;mix-blend-mode:normal;color-interpolation:sRGB;color-interpolation-filters:linearRGB;solid-color:#000000;solid-opacity:1;fill:#00d493;fill-opacity:1;fill-rule:evenodd;stroke:none;stroke-width:1.30000007;stroke-linecap:round;stroke-linejoin:round;stroke-miterlimit:1.5;stroke-dasharray:none;stroke-dashoffset:0;stroke-opacity:1;color-rendering:auto;image-rendering:auto;shape-rendering:auto;text-rendering:auto;enable-background:accumulate" /></g></svg>