<?xml version="1.0" encoding="UTF-8" standalone="no"?>
<svg
   xmlns:dc="http://purl.org/dc/elements/1.1/"
   xmlns:cc="http://creativecommons.org/ns#"
   xmlns:rdf="http://www.w3.org/1999/02/22-rdf-syntax-ns#"
   xmlns:svg="http://www.w3.org/2000/svg"
   xmlns="http://www.w3.org/2000/svg"
   xmlns:sodipodi="http://sodipodi.sourceforge.net/DTD/sodipodi-0.dtd"
   xmlns:inkscape="http://www.inkscape.org/namespaces/inkscape"
   width="18"
   height="18"
   version="1.1"
   xml:space="preserve"
   style="clip-rule:evenodd;fill-rule:evenodd;stroke-linecap:square;stroke-miterlimit:1.5"
   inkscape:version="0.91 r13725"
   sodipodi:docname="new-file.svg"
   id="svg2"><rect
     id="backgroundrect"
     width="20"
     height="20"
     x="0"
     y="-2"
     style="fill:none;stroke:none" /><metadata
     id="metadata2937"><rdf:RDF><cc:Work
         rdf:about=""><dc:format>image/svg+xml</dc:format><dc:type
           rdf:resource="http://purl.org/dc/dcmitype/StillImage" /><dc:title></dc:title></cc:Work></rdf:RDF></metadata><defs
     id="defs2935" /><sodipodi:namedview
     pagecolor="#ffffff"
     bordercolor="#666666"
     borderopacity="1"
     objecttolerance="10"
     gridtolerance="10"
     guidetolerance="10"
     inkscape:pageopacity="0"
     inkscape:pageshadow="2"
     inkscape:window-width="1920"
     inkscape:window-height="1027"
     id="namedview2933"
     showgrid="false"
     inkscape:zoom="41.7193"
     inkscape:cx="4.790823"
     inkscape:cy="9.2922394"
     inkscape:window-x="-8"
     inkscape:window-y="-8"
     inkscape:window-maximized="1"
     inkscape:current-layer="g8"
     inkscape:object-paths="false"
     showguides="true"
     inkscape:guide-bbox="true"
     inkscape:object-nodes="true"
     inkscape:snap-bbox="true"
     inkscape:snap-bbox-midpoints="true"
     inkscape:snap-global="false" /><g
     class="currentLayer"
     id="g8"
     transform="matrix(0.95,0,0,0.95,-1.3752393,-0.85164563)"><title
       id="title10">Layer 1</title><g
       id="g19"
       class="" /><g
       id="g21"
       class="" /><g
       id="g23"
       class="" /><g
       id="g25"
       class="" /><g
       id="g27"
       class="" /><g
       id="g29"
       class="" /><g
       id="g31"
       class="" /><g
       id="g33"
       class="" /><g
       id="g35"
       class="" /><g
       id="g37"
       class="" /><g
       id="g39"
       class="" /><g
       id="g41"
       class="" /><g
       id="g43"
       class="" /><g
       id="g45"
       class="" /><g
       id="g47"
       class="" /><g
       id="g3737"
       transform="translate(0.92115533,0.37017199)"><path
         class=""
         id="polygon3"
         d="m 4.3964844,2.7773438 0,14.4453122 5.8906246,0 C 9.472922,16.302335 8.9628906,15.108215 8.9628906,13.787109 c 0,-2.873022 2.3398684,-5.2148434 5.2128904,-5.2148434 0.495201,0 0.973302,0.073273 1.427735,0.203125 l 0,-2.5117187 -3.486328,-3.4863281 -7.7207036,0 z"
         style="fill:#fdfdfd;fill-opacity:0.66822426"
         inkscape:connector-curvature="0" /><path
         class=""
         inkscape:connector-curvature="0"
         id="path7"
         d="m 6.88677,8.5056496 6.22646,0 c 0.13748,0 0.249058,-0.1113291 0.249058,-0.2490584 0,-0.1377293 -0.111578,-0.2490584 -0.249058,-0.2490584 l -6.22646,0 c -0.1374802,0 -0.2490584,0.1113291 -0.2490584,0.2490584 0,0.1377293 0.1115782,0.2490584 0.2490584,0.2490584 z"
         style="fill:#3f3f3f;fill-opacity:1" /><path
         class=""
         inkscape:connector-curvature="0"
         id="path9"
         d="m 6.88677,6.5131825 2.4905839,0 c 0.1374803,0 0.2490584,-0.1113292 0.2490584,-0.2490584 0,-0.1377293 -0.1115781,-0.2490584 -0.2490584,-0.2490584 l -2.4905839,0 c -0.1374802,0 -0.2490584,0.1113291 -0.2490584,0.2490584 0,0.1377292 0.1115782,0.2490584 0.2490584,0.2490584 z"
         style="fill:#3f3f3f;fill-opacity:1" /><path
         class=""
         id="path11"
         d="m 6.8867188,10 c -0.1374802,0 -0.2480469,0.112271 -0.2480469,0.25 0,0.13773 0.1105667,0.248047 0.2480469,0.248047 l 3.2773432,0 C 10.306755,10.324371 10.451669,10.153934 10.615234,10 l -3.7285152,0 z"
         style="fill:#3f3f3f;fill-opacity:1"
         inkscape:connector-curvature="0" /><path
         class=""
         id="path13"
         d="m 6.8867188,11.992188 c -0.1374802,0 -0.2480469,0.11227 -0.2480469,0.25 0,0.137729 0.1105667,0.248046 0.2480469,0.248046 l 2.2460937,0 c 0.043664,-0.169366 0.094442,-0.33573 0.1542969,-0.498046 l -2.4003906,0 z"
         style="fill:#3f3f3f;fill-opacity:1"
         inkscape:connector-curvature="0" /><path
         class=""
         id="path15"
         d="m 6.8867188,13.984375 c -0.1374802,0 -0.2480469,0.11227 -0.2480469,0.25 0,0.137729 0.1105667,0.248047 0.2480469,0.248047 l 2.1269531,0 C 8.991616,14.318518 8.9790221,14.15266 8.9726562,13.984375 l -2.0859374,0 z"
         style="fill:#3f3f3f;fill-opacity:1"
         inkscape:connector-curvature="0" /><polygon
         class=""
         style="fill:#3f3f3f;fill-opacity:1"
         points="12.116996,6.2641239 15.603814,6.2641239 12.116996,2.7773066 "
         id="polygon17" /></g><g
       id="g3717"
       style="clip-rule:evenodd;fill:#30c877;fill-opacity:1;fill-rule:evenodd;stroke-linecap:square;stroke-miterlimit:1.5"
       class=""
       transform="translate(1.1101766,0.25231286)"><path
         inkscape:connector-curvature="0"
         id="path3739-5"
         d="M 14.176514,9.6099712 C 11.875347,9.6099712 10,11.485318 10,13.786486 c 0,2.301167 1.875347,4.176514 4.176514,4.176514 2.301167,0 4.177937,-1.875347 4.177937,-4.176514 0,-2.301168 -1.87677,-4.1765148 -4.177937,-4.1765148 z m 0,0.9473968 c 1.789463,0 3.23054,1.439654 3.23054,3.229118 0,1.789463 -1.441077,3.23054 -3.23054,3.23054 -1.789463,0 -3.229117,-1.441077 -3.229117,-3.23054 0,-1.789464 1.439654,-3.229118 3.229117,-3.229118 z"
         style="color:#000000;font-style:normal;font-variant:normal;font-weight:normal;font-stretch:normal;font-size:medium;line-height:normal;font-family:sans-serif;text-indent:0;text-align:start;text-decoration:none;text-decoration-line:none;text-decoration-style:solid;text-decoration-color:#000000;letter-spacing:normal;word-spacing:normal;text-transform:none;direction:ltr;block-progression:tb;writing-mode:lr-tb;baseline-shift:baseline;text-anchor:start;white-space:normal;clip-rule:nonzero;overflow:visible;visibility:visible;opacity:1;isolation:auto;mix-blend-mode:normal;color-interpolation:sRGB;color-interpolation-filters:linearRGB;solid-color:#000000;solid-opacity:1;fill:#30c877;fill-opacity:1;fill-rule:nonzero;stroke:none;stroke-width:1.29999995;stroke-linecap:butt;stroke-linejoin:round;stroke-miterlimit:1.5;stroke-dasharray:none;stroke-dashoffset:0;stroke-opacity:1;color-rendering:auto;image-rendering:auto;shape-rendering:auto;text-rendering:auto;enable-background:accumulate" /><path
         inkscape:connector-curvature="0"
         id="path3771-8"
         d="m 14.167778,11.356067 a 0.57171077,0.57171077 0 0 0 -0.561692,0.580587 l 0,1.276257 -1.277974,0 a 0.57199777,0.57199777 0 1 0 0,1.143995 l 1.277974,0 0,1.277976 a 0.57171077,0.57171077 0 1 0 1.142278,0 l 0,-1.277976 1.277975,0 a 0.57199777,0.57199777 0 0 0 0,-1.143995 l -1.277975,0 0,-1.276257 a 0.57171077,0.57171077 0 0 0 -0.580586,-0.580587 z"
         style="color:#000000;font-style:normal;font-variant:normal;font-weight:normal;font-stretch:normal;font-size:medium;line-height:normal;font-family:sans-serif;text-indent:0;text-align:start;text-decoration:none;text-decoration-line:none;text-decoration-style:solid;text-decoration-color:#000000;letter-spacing:normal;word-spacing:normal;text-transform:none;direction:ltr;block-progression:tb;writing-mode:lr-tb;baseline-shift:baseline;text-anchor:start;white-space:normal;clip-rule:nonzero;overflow:visible;visibility:visible;opacity:1;isolation:auto;mix-blend-mode:normal;color-interpolation:sRGB;color-interpolation-filters:linearRGB;solid-color:#000000;solid-opacity:1;fill:#30c877;fill-opacity:1;fill-rule:evenodd;stroke:none;stroke-width:1.30000007;stroke-linecap:round;stroke-linejoin:round;stroke-miterlimit:1.5;stroke-dasharray:none;stroke-dashoffset:0;stroke-opacity:1;color-rendering:auto;image-rendering:auto;shape-rendering:auto;text-rendering:auto;enable-background:accumulate" /></g></g></svg>