<?xml version="1.0" encoding="UTF-8" standalone="no"?>
<!-- Generator: Adobe Illustrator 18.0.0, SVG Export Plug-In . SVG Version: 6.00 Build 0)  -->

<svg
   xmlns:dc="http://purl.org/dc/elements/1.1/"
   xmlns:cc="http://creativecommons.org/ns#"
   xmlns:rdf="http://www.w3.org/1999/02/22-rdf-syntax-ns#"
   xmlns:svg="http://www.w3.org/2000/svg"
   xmlns="http://www.w3.org/2000/svg"
   xmlns:xlink="http://www.w3.org/1999/xlink"
   xmlns:sodipodi="http://sodipodi.sourceforge.net/DTD/sodipodi-0.dtd"
   xmlns:inkscape="http://www.inkscape.org/namespaces/inkscape"
   version="1.1"
   id="Capa_1"
   x="0px"
   y="0px"
   viewBox="0 0 18.000001 18.000001"
   xml:space="preserve"
   inkscape:version="0.91 r13725"
   sodipodi:docname="new-folder.svg"
   width="18"
   height="18"><metadata
     id="metadata49"><rdf:RDF><cc:Work
         rdf:about=""><dc:format>image/svg+xml</dc:format><dc:type
           rdf:resource="http://purl.org/dc/dcmitype/StillImage" /><dc:title></dc:title></cc:Work></rdf:RDF></metadata><defs
     id="defs47"><linearGradient
       inkscape:collect="always"
       id="linearGradient3882"><stop
         style="stop-color:#227aca;stop-opacity:1"
         offset="0"
         id="stop3884" /><stop
         style="stop-color:#3a62cf;stop-opacity:1"
         offset="1"
         id="stop3886" /></linearGradient><linearGradient
       inkscape:collect="always"
       xlink:href="#linearGradient3882"
       id="linearGradient3890"
       x1="11.388494"
       y1="30.206982"
       x2="50.714386"
       y2="30.38493"
       gradientUnits="userSpaceOnUse"
       gradientTransform="matrix(0.54197929,0,0,0.54197929,-1.16603,-12.352532)" /></defs><sodipodi:namedview
     pagecolor="#ffffff"
     bordercolor="#666666"
     borderopacity="1"
     objecttolerance="10"
     gridtolerance="10"
     guidetolerance="10"
     inkscape:pageopacity="0"
     inkscape:pageshadow="2"
     inkscape:window-width="1920"
     inkscape:window-height="1027"
     id="namedview45"
     showgrid="false"
     inkscape:snap-bbox="true"
     showguides="true"
     inkscape:guide-bbox="true"
     inkscape:bbox-paths="true"
     inkscape:object-nodes="true"
     inkscape:snap-global="true"
     inkscape:zoom="22.627417"
     inkscape:cx="-6.6968747"
     inkscape:cy="17.689258"
     inkscape:window-x="-8"
     inkscape:window-y="-8"
     inkscape:window-maximized="1"
     inkscape:current-layer="g3730"
     inkscape:snap-bbox-midpoints="true"
     inkscape:snap-bbox-edge-midpoints="true"
     inkscape:bbox-nodes="true" /><g
     id="g3730"
     transform="matrix(0.75878685,0,0,0.75878685,-2.595541,3.8674287)"><g
       transform="matrix(0.40015191,0,0,0.40015191,2.9469642,-8.2118814)"
       id="g15" /><g
       transform="matrix(0.40015191,0,0,0.40015191,2.9469642,-8.2118814)"
       id="g17" /><g
       transform="matrix(0.40015191,0,0,0.40015191,2.9469642,-8.2118814)"
       id="g19" /><g
       transform="matrix(0.40015191,0,0,0.40015191,2.9469642,-8.2118814)"
       id="g21" /><g
       transform="matrix(0.40015191,0,0,0.40015191,2.9469642,-8.2118814)"
       id="g23" /><g
       transform="matrix(0.40015191,0,0,0.40015191,2.9469642,-8.2118814)"
       id="g25" /><g
       transform="matrix(0.40015191,0,0,0.40015191,2.9469642,-8.2118814)"
       id="g27" /><g
       transform="matrix(0.40015191,0,0,0.40015191,2.9469642,-8.2118814)"
       id="g29" /><g
       transform="matrix(0.40015191,0,0,0.40015191,2.9469642,-8.2118814)"
       id="g31" /><g
       transform="matrix(0.40015191,0,0,0.40015191,2.9469642,-8.2118814)"
       id="g33" /><g
       transform="matrix(0.40015191,0,0,0.40015191,2.9469642,-8.2118814)"
       id="g35" /><g
       transform="matrix(0.40015191,0,0,0.40015191,2.9469642,-8.2118814)"
       id="g37" /><g
       transform="matrix(0.40015191,0,0,0.40015191,2.9469642,-8.2118814)"
       id="g39" /><g
       transform="matrix(0.40015191,0,0,0.40015191,2.9469642,-8.2118814)"
       id="g41" /><g
       transform="matrix(0.40015191,0,0,0.40015191,2.9469642,-8.2118814)"
       id="g43" /><g
       id="g3756"
       transform="matrix(0.76681296,0,0,0.76681296,2.9766439,3.6954126)"><path
         style="opacity:1;fill:#1b4c71;fill-opacity:1;stroke:none;stroke-width:0.5;stroke-linecap:square;stroke-linejoin:miter;stroke-miterlimit:1.41420996;stroke-dasharray:none;stroke-dashoffset:0;stroke-opacity:1"
         d="m 13.107422,-3.3105476 0,4.7832029 15.333984,0 0,-2.710937 c 0,-1.1487286 -0.92549,-2.0722659 -2.074218,-2.0722659 l -13.259766,0 z"
         id="path3786"
         inkscape:connector-curvature="0" /><path
         style="opacity:1;fill:url(#linearGradient3890);fill-opacity:1;stroke:none;stroke-width:0.5;stroke-linecap:square;stroke-linejoin:miter;stroke-miterlimit:1.41420996;stroke-dasharray:none;stroke-dashoffset:0;stroke-opacity:1"
         d="m 5.6328125,-6.1074226 c -1.1487283,0 -2.0742187,0.9235373 -2.0742187,2.0722657 l 0,13.2226562 0,0.333984 0,2.5117187 c 0,1.148728 0.9254904,2.074219 2.0742187,2.074219 l 2.5976563,0 0.2871093,0 0.019531,0 6.7324219,0 c -0.614949,-1.176533 -0.96875,-2.510035 -0.96875,-3.925781 0,-4.6931057 3.824472,-8.5175787 8.517578,-8.5175787 2.153329,0 4.120264,0.809956 5.623047,2.134766 l 0,-2.769531 0,-0.53125002 c 0,-1.148729 -0.925491,-2.07226598 -2.074218,-2.07226598 l -10.423829,0 -1.269531,-2.4609372 C 14.14707,-5.0559902 13.748337,-6.1074226 12.599609,-6.1074226 l -1.96289,0 -1.6757815,0 -0.4238281,0 -0.019531,0 -0.2871093,0 -2.5976563,0 z"
         id="path3827"
         inkscape:connector-curvature="0" /><g
         id="g3717"
         style="clip-rule:evenodd;fill:#30c877;fill-opacity:1;fill-rule:evenodd;stroke-linecap:square;stroke-miterlimit:1.5"
         transform="translate(0,-12.000001)"><path
           inkscape:connector-curvature="0"
           id="path3739"
           d="M 22.819121,15.361758 C 19.061936,15.361758 16,18.423694 16,22.180879 16,25.938064 19.061936,29 22.819121,29 c 3.757184,0 6.821443,-3.061936 6.821443,-6.819121 0,-3.757185 -3.064259,-6.819121 -6.821443,-6.819121 z m 0,1.546844 c 2.921709,0 5.274599,2.350566 5.274599,5.272277 0,2.921711 -2.35289,5.2746 -5.274599,5.2746 -2.921711,0 -5.272277,-2.352889 -5.272277,-5.2746 0,-2.921711 2.350566,-5.272277 5.272277,-5.272277 z"
           style="color:#000000;font-style:normal;font-variant:normal;font-weight:normal;font-stretch:normal;font-size:medium;line-height:normal;font-family:sans-serif;text-indent:0;text-align:start;text-decoration:none;text-decoration-line:none;text-decoration-style:solid;text-decoration-color:#000000;letter-spacing:normal;word-spacing:normal;text-transform:none;direction:ltr;block-progression:tb;writing-mode:lr-tb;baseline-shift:baseline;text-anchor:start;white-space:normal;clip-rule:nonzero;overflow:visible;visibility:visible;opacity:1;isolation:auto;mix-blend-mode:normal;color-interpolation:sRGB;color-interpolation-filters:linearRGB;solid-color:#000000;solid-opacity:1;fill:#30c877;fill-opacity:1;fill-rule:nonzero;stroke:none;stroke-width:1.29999995;stroke-linecap:butt;stroke-linejoin:round;stroke-miterlimit:1.5;stroke-dasharray:none;stroke-dashoffset:0;stroke-opacity:1;color-rendering:auto;image-rendering:auto;shape-rendering:auto;text-rendering:auto;enable-background:accumulate" /><path
           inkscape:connector-curvature="0"
           id="path3771"
           d="m 22.804857,18.212662 a 0.93344942,0.93344942 0 0 0 -0.917091,0.947941 l 0,2.083783 -2.086588,0 a 0.933918,0.933918 0 1 0 0,1.867836 l 2.086588,0 0,2.086589 a 0.93344942,0.93344942 0 1 0 1.865031,0 l 0,-2.086589 2.086588,0 a 0.933918,0.933918 0 0 0 0,-1.867836 l -2.086588,0 0,-2.083783 a 0.93344942,0.93344942 0 0 0 -0.94794,-0.947941 z"
           style="color:#000000;font-style:normal;font-variant:normal;font-weight:normal;font-stretch:normal;font-size:medium;line-height:normal;font-family:sans-serif;text-indent:0;text-align:start;text-decoration:none;text-decoration-line:none;text-decoration-style:solid;text-decoration-color:#000000;letter-spacing:normal;word-spacing:normal;text-transform:none;direction:ltr;block-progression:tb;writing-mode:lr-tb;baseline-shift:baseline;text-anchor:start;white-space:normal;clip-rule:nonzero;overflow:visible;visibility:visible;opacity:1;isolation:auto;mix-blend-mode:normal;color-interpolation:sRGB;color-interpolation-filters:linearRGB;solid-color:#000000;solid-opacity:1;fill:#30c877;fill-opacity:1;fill-rule:evenodd;stroke:none;stroke-width:1.30000007;stroke-linecap:round;stroke-linejoin:round;stroke-miterlimit:1.5;stroke-dasharray:none;stroke-dashoffset:0;stroke-opacity:1;color-rendering:auto;image-rendering:auto;shape-rendering:auto;text-rendering:auto;enable-background:accumulate" /></g></g></g></svg>